<svg width="32" height="32" viewBox="0 0 32 32" fill="none" xmlns="http://www.w3.org/2000/svg">
<path d="M28 6.66667H26.6667V5.33333C26.6667 4.97971 26.5262 4.64057 26.2762 4.39052C26.0261 4.14048 25.687 4 25.3334 4C24.9797 4 24.6406 4.14048 24.3905 4.39052C24.1405 4.64057 24 4.97971 24 5.33333V6.66667H8.00002V5.33333C8.00002 4.97971 7.85954 4.64057 7.6095 4.39052C7.35945 4.14048 7.02031 4 6.66669 4C6.31307 4 5.97393 4.14048 5.72388 4.39052C5.47383 4.64057 5.33335 4.97971 5.33335 5.33333V6.66667H4.00002C3.6464 6.66667 3.30726 6.80714 3.05721 7.05719C2.80716 7.30724 2.66669 7.64638 2.66669 8V16C2.66669 16.3536 2.80716 16.6928 3.05721 16.9428C3.30726 17.1929 3.6464 17.3333 4.00002 17.3333H5.33335V26.6667C5.33335 27.0203 5.47383 27.3594 5.72388 27.6095C5.97393 27.8595 6.31307 28 6.66669 28C7.02031 28 7.35945 27.8595 7.6095 27.6095C7.85954 27.3594 8.00002 27.0203 8.00002 26.6667V17.3333H24V26.6667C24 27.0203 24.1405 27.3594 24.3905 27.6095C24.6406 27.8595 24.9797 28 25.3334 28C25.687 28 26.0261 27.8595 26.2762 27.6095C26.5262 27.3594 26.6667 27.0203 26.6667 26.6667V17.3333H28C28.3536 17.3333 28.6928 17.1929 28.9428 16.9428C29.1929 16.6928 29.3334 16.3536 29.3334 16V8C29.3334 7.64638 29.1929 7.30724 28.9428 7.05719C28.6928 6.80714 28.3536 6.66667 28 6.66667ZM5.33335 12.6933V9.33333H8.69335L5.33335 12.6933ZM7.12002 14.6667L12.4534 9.33333H16.8934L11.56 14.6667H7.12002ZM15.32 14.6667L20.6534 9.33333H24.8934L19.56 14.6667H15.32ZM26.6667 14.6667H23.32L26.6667 11.32V14.6667Z" fill="white"/>
</svg>
