<svg width="30" height="30" viewBox="0 0 30 30" fill="none" xmlns="http://www.w3.org/2000/svg">
<path d="M10.625 21.25C10.9565 21.25 11.2745 21.1183 11.5089 20.8839C11.7433 20.6495 11.875 20.3315 11.875 20C11.8811 19.9168 11.8811 19.8332 11.875 19.75C11.8613 19.6717 11.836 19.5959 11.8 19.525C11.7726 19.4453 11.7348 19.3697 11.6875 19.3L11.5375 19.1125C11.4186 18.9987 11.2784 18.9095 11.125 18.85C10.8913 18.74 10.6293 18.7051 10.375 18.75L10.15 18.825L9.925 18.9375C9.85952 18.9837 9.7969 19.0337 9.7375 19.0875L9.5875 19.275C9.54019 19.3447 9.50236 19.4203 9.475 19.5C9.43896 19.5709 9.41368 19.6467 9.4 19.725C9.39386 19.8082 9.39386 19.8918 9.4 19.975C9.4 20.3065 9.5317 20.6245 9.76612 20.8589C10.0005 21.0933 10.3185 21.225 10.65 21.225L10.625 21.25ZM20.625 21.25C20.9565 21.25 21.2745 21.1183 21.5089 20.8839C21.7433 20.6495 21.875 20.3315 21.875 20C21.8811 19.9168 21.8811 19.8332 21.875 19.75C21.8613 19.6717 21.836 19.5959 21.8 19.525C21.7726 19.4453 21.7348 19.3697 21.6875 19.3L21.5375 19.1125C21.416 19.0021 21.2765 18.9133 21.125 18.85C20.8207 18.725 20.4793 18.725 20.175 18.85C20.0235 18.9133 19.884 19.0021 19.7625 19.1125L19.6125 19.3C19.5652 19.3697 19.5274 19.4453 19.5 19.525C19.464 19.5959 19.4387 19.6717 19.425 19.75C19.4189 19.8332 19.4189 19.9168 19.425 20C19.4264 20.3279 19.5566 20.6422 19.7875 20.875C20.009 21.1017 20.3084 21.2357 20.625 21.25ZM16.875 6.25H14.375C14.0435 6.25 13.7255 6.3817 13.4911 6.61612C13.2567 6.85054 13.125 7.16848 13.125 7.5C13.125 7.83152 13.2567 8.14946 13.4911 8.38388C13.7255 8.6183 14.0435 8.75 14.375 8.75H16.875C17.2065 8.75 17.5245 8.6183 17.7589 8.38388C17.9933 8.14946 18.125 7.83152 18.125 7.5C18.125 7.16848 17.9933 6.85054 17.7589 6.61612C17.5245 6.3817 17.2065 6.25 16.875 6.25ZM23.125 2.5H8.125C7.13044 2.5 6.17661 2.89509 5.47335 3.59835C4.77009 4.30161 4.375 5.25544 4.375 6.25V21.25C4.37717 22.0237 4.6186 22.7778 5.06617 23.4088C5.51375 24.0399 6.14556 24.5171 6.875 24.775V26.25C6.875 26.5815 7.0067 26.8995 7.24112 27.1339C7.47554 27.3683 7.79348 27.5 8.125 27.5C8.45652 27.5 8.77446 27.3683 9.00888 27.1339C9.2433 26.8995 9.375 26.5815 9.375 26.25V25H21.875V26.25C21.875 26.5815 22.0067 26.8995 22.2411 27.1339C22.4755 27.3683 22.7935 27.5 23.125 27.5C23.4565 27.5 23.7745 27.3683 24.0089 27.1339C24.2433 26.8995 24.375 26.5815 24.375 26.25V24.775C25.1044 24.5171 25.7363 24.0399 26.1838 23.4088C26.6314 22.7778 26.8728 22.0237 26.875 21.25V6.25C26.875 5.25544 26.4799 4.30161 25.7767 3.59835C25.0734 2.89509 24.1196 2.5 23.125 2.5ZM24.375 21.25C24.375 21.5815 24.2433 21.8995 24.0089 22.1339C23.7745 22.3683 23.4565 22.5 23.125 22.5H8.125C7.79348 22.5 7.47554 22.3683 7.24112 22.1339C7.0067 21.8995 6.875 21.5815 6.875 21.25V17.5H24.375V21.25ZM24.375 15H6.875V6.25C6.875 5.91848 7.0067 5.60054 7.24112 5.36612C7.47554 5.1317 7.79348 5 8.125 5H23.125C23.4565 5 23.7745 5.1317 24.0089 5.36612C24.2433 5.60054 24.375 5.91848 24.375 6.25V15Z" fill="white"/>
</svg>
