<svg width="30" height="30" viewBox="0 0 30 30" fill="none" xmlns="http://www.w3.org/2000/svg">
<path d="M25.1375 21.8625L18.75 10.9125V5H20C20.3315 5 20.6495 4.8683 20.8839 4.63388C21.1183 4.39946 21.25 4.08152 21.25 3.75C21.25 3.41848 21.1183 3.10054 20.8839 2.86612C20.6495 2.6317 20.3315 2.5 20 2.5H10C9.66848 2.5 9.35054 2.6317 9.11612 2.86612C8.88169 3.10054 8.75 3.41848 8.75 3.75C8.75 4.08152 8.88169 4.39946 9.11612 4.63388C9.35054 4.8683 9.66848 5 10 5H11.25V10.9125L4.8625 21.8625C4.53068 22.4321 4.35489 23.0792 4.35286 23.7385C4.35083 24.3977 4.52263 25.0458 4.85093 25.6175C5.17924 26.1892 5.65245 26.6642 6.22287 26.9947C6.79329 27.3252 7.44075 27.4995 8.1 27.5H21.85C22.5092 27.4995 23.1567 27.3252 23.7271 26.9947C24.2975 26.6642 24.7708 26.1892 25.0991 25.6175C25.4274 25.0458 25.5992 24.3977 25.5971 23.7385C25.5951 23.0792 25.4193 22.4321 25.0875 21.8625H25.1375ZM13.575 11.8625C13.6852 11.6769 13.7455 11.4659 13.75 11.25V5H16.25V11.25C16.2523 11.4701 16.3127 11.6857 16.425 11.875L17.5 13.75H12.5L13.575 11.8625ZM22.975 24.3625C22.8659 24.5514 22.7093 24.7085 22.5207 24.8182C22.3321 24.9278 22.1181 24.9862 21.9 24.9875H8.15C7.93186 24.9862 7.71786 24.9278 7.52927 24.8182C7.34068 24.7085 7.18407 24.5514 7.075 24.3625C6.96529 24.1725 6.90753 23.9569 6.90753 23.7375C6.90753 23.5181 6.96529 23.3025 7.075 23.1125L11.0375 16.25H18.975L22.975 23.125C23.0847 23.315 23.1425 23.5306 23.1425 23.75C23.1425 23.9694 23.0847 24.185 22.975 24.375V24.3625ZM12.5 18.75C12.2528 18.75 12.0111 18.8233 11.8055 18.9607C11.6 19.098 11.4398 19.2932 11.3451 19.5216C11.2505 19.7501 11.2258 20.0014 11.274 20.2439C11.3222 20.4863 11.4413 20.7091 11.6161 20.8839C11.7909 21.0587 12.0137 21.1777 12.2561 21.226C12.4986 21.2742 12.7499 21.2495 12.9784 21.1549C13.2068 21.0602 13.402 20.9 13.5393 20.6945C13.6767 20.4889 13.75 20.2472 13.75 20C13.75 19.6685 13.6183 19.3505 13.3839 19.1161C13.1495 18.8817 12.8315 18.75 12.5 18.75ZM17.5 20C17.2528 20 17.0111 20.0733 16.8055 20.2107C16.6 20.348 16.4398 20.5432 16.3451 20.7716C16.2505 21.0001 16.2258 21.2514 16.274 21.4939C16.3222 21.7363 16.4413 21.9591 16.6161 22.1339C16.7909 22.3087 17.0137 22.4277 17.2561 22.476C17.4986 22.5242 17.7499 22.4995 17.9784 22.4049C18.2068 22.3102 18.402 22.15 18.5393 21.9445C18.6767 21.7389 18.75 21.4972 18.75 21.25C18.75 20.9185 18.6183 20.6005 18.3839 20.3661C18.1495 20.1317 17.8315 20 17.5 20Z" fill="white"/>
</svg>
