<svg width="33" height="33" viewBox="0 0 33 33" fill="none" xmlns="http://www.w3.org/2000/svg">
<path d="M29.3975 7.92001C29.3505 7.74443 29.2693 7.5799 29.1583 7.43593C29.0474 7.29197 28.909 7.17142 28.7512 7.08126L21.6012 2.95626C21.4451 2.86478 21.2725 2.80501 21.0932 2.78038C20.914 2.75575 20.7316 2.76674 20.5566 2.81273C20.3816 2.85871 20.2174 2.93879 20.0734 3.04836C19.9294 3.15793 19.8085 3.29485 19.7175 3.45126L16.5 9.03376L13.2825 3.45126C13.1915 3.29485 13.0706 3.15793 12.9266 3.04836C12.7826 2.93879 12.6184 2.85871 12.4434 2.81273C12.2684 2.76674 12.086 2.75575 11.9067 2.78038C11.7275 2.80501 11.5548 2.86478 11.3987 2.95626L4.24873 7.08126C4.09092 7.17142 3.95255 7.29197 3.84163 7.43593C3.7307 7.5799 3.64942 7.74443 3.60248 7.92001C3.51147 8.2685 3.56085 8.63879 3.73998 8.95126L9.23998 18.3425C8.62638 19.4666 8.28716 20.7199 8.24998 22C8.2467 23.2489 8.52702 24.4822 9.06978 25.607C9.61254 26.7318 10.4036 27.7187 11.3833 28.4933C12.3629 29.2678 13.5057 29.8099 14.7254 30.0785C15.945 30.3471 17.2098 30.3354 18.4242 30.0441C19.6387 29.7528 20.7711 29.1896 21.7362 28.3969C22.7013 27.6042 23.4738 26.6028 23.9956 25.4681C24.5173 24.3334 24.7746 23.0951 24.7481 21.8464C24.7216 20.5978 24.4119 19.3715 23.8425 18.26L29.205 8.96501C29.3048 8.8123 29.3732 8.64127 29.4062 8.46186C29.4393 8.28245 29.4363 8.09825 29.3975 7.92001ZM6.87498 8.77251L11.6325 6.02251L16.06 13.75C14.1727 13.8666 12.3843 14.6344 11 15.9225L6.87498 8.77251ZM16.5 27.5C15.0413 27.5 13.6423 26.9205 12.6109 25.8891C11.5794 24.8576 11 23.4587 11 22C11 20.5413 11.5794 19.1424 12.6109 18.1109C13.6423 17.0795 15.0413 16.5 16.5 16.5C17.9587 16.5 19.3576 17.0795 20.3891 18.1109C21.4205 19.1424 22 20.5413 22 22C22 23.4587 21.4205 24.8576 20.3891 25.8891C19.3576 26.9205 17.9587 27.5 16.5 27.5ZM22 15.8813C21.2535 15.1994 20.3861 14.6631 19.4425 14.3L18.095 11.7838L21.4225 6.02251L26.18 8.77251L22 15.8813Z" fill="white"/>
</svg>
