<svg width="30" height="30" viewBox="0 0 30 30" fill="none" xmlns="http://www.w3.org/2000/svg">
<path d="M27.5 12.0875C27.421 11.8589 27.2774 11.658 27.0866 11.5094C26.8958 11.3607 26.666 11.2706 26.425 11.25L19.3125 10.2125L16.125 3.75C16.0226 3.53866 15.8628 3.36043 15.6638 3.23572C15.4649 3.111 15.2348 3.04486 15 3.04486C14.7652 3.04486 14.5351 3.111 14.3361 3.23572C14.1371 3.36043 13.9773 3.53866 13.875 3.75L10.6875 10.2L3.57497 11.25C3.34362 11.2829 3.12613 11.38 2.94716 11.5302C2.76819 11.6804 2.63492 11.8778 2.56247 12.1C2.49615 12.3171 2.4902 12.5481 2.54526 12.7684C2.60031 12.9886 2.71429 13.1897 2.87497 13.35L8.03747 18.35L6.78747 25.45C6.73701 25.6855 6.75566 25.9306 6.8412 26.1558C6.92674 26.381 7.07552 26.5766 7.26963 26.7192C7.46375 26.8619 7.69494 26.9454 7.93538 26.9597C8.17583 26.974 8.4153 26.9186 8.62497 26.8L15 23.4625L21.375 26.8C21.5504 26.899 21.7485 26.9507 21.95 26.95C22.2148 26.9509 22.473 26.8678 22.6875 26.7125C22.8814 26.5736 23.0315 26.3821 23.1201 26.1606C23.2087 25.9391 23.2321 25.6968 23.1875 25.4625L21.9375 18.3625L27.1 13.3625C27.2804 13.2096 27.4138 13.0086 27.4846 12.7829C27.5554 12.5572 27.5608 12.3161 27.5 12.0875ZM19.8125 17.0875C19.6678 17.228 19.5593 17.4014 19.4961 17.593C19.433 17.7845 19.4172 17.9885 19.45 18.1875L20.35 23.4375L15.65 20.9375C15.4673 20.8471 15.2663 20.8001 15.0625 20.8001C14.8587 20.8001 14.6576 20.8471 14.475 20.9375L9.77497 23.4375L10.675 18.1875C10.7078 17.9885 10.6919 17.7845 10.6288 17.593C10.5657 17.4014 10.4572 17.228 10.3125 17.0875L6.56247 13.3375L11.825 12.575C12.0275 12.5468 12.22 12.4694 12.3856 12.3496C12.5512 12.2297 12.6849 12.071 12.775 11.8875L15 7.125L17.35 11.9C17.44 12.0835 17.5737 12.2422 17.7393 12.3621C17.905 12.4819 18.0975 12.5593 18.3 12.5875L23.5625 13.35L19.8125 17.0875Z" fill="white"/>
</svg>
