<svg width="30" height="30" viewBox="0 0 30 30" fill="none" xmlns="http://www.w3.org/2000/svg">
<path d="M18.5125 15.35C19.3037 14.5003 19.7495 13.386 19.7625 12.225C19.7625 10.9719 19.2647 9.77003 18.3786 8.88392C17.4925 7.99781 16.2906 7.5 15.0375 7.5C13.7844 7.5 12.5825 7.99781 11.6964 8.88392C10.8103 9.77003 10.3125 10.9719 10.3125 12.225C10.3255 13.386 10.7713 14.5003 11.5625 15.35C10.4608 15.8986 9.51278 16.7124 8.80364 17.7183C8.09451 18.7242 7.64653 19.8905 7.5 21.1125C7.46353 21.444 7.56026 21.7765 7.76889 22.0367C7.97752 22.2969 8.28098 22.4635 8.6125 22.5C8.94402 22.5365 9.27645 22.4397 9.53666 22.2311C9.79686 22.0225 9.96353 21.719 10 21.3875C10.1492 20.1764 10.7361 19.0617 11.6501 18.2533C12.5642 17.4449 13.7423 16.9987 14.9625 16.9987C16.1827 16.9987 17.3608 17.4449 18.2749 18.2533C19.1889 19.0617 19.7758 20.1764 19.925 21.3875C19.9598 21.708 20.117 22.0027 20.3639 22.21C20.6108 22.4173 20.9283 22.5212 21.25 22.5H21.3875C21.7152 22.4623 22.0147 22.2966 22.2207 22.0391C22.4267 21.7815 22.5226 21.453 22.4875 21.125C22.3518 19.9095 21.918 18.7463 21.2245 17.7388C20.5311 16.7313 19.5995 15.9107 18.5125 15.35ZM15 14.45C14.5599 14.45 14.1298 14.3195 13.7639 14.075C13.398 13.8305 13.1128 13.483 12.9444 13.0765C12.776 12.6699 12.7319 12.2225 12.8178 11.7909C12.9036 11.3593 13.1155 10.9629 13.4267 10.6517C13.7379 10.3405 14.1343 10.1286 14.5659 10.0428C14.9975 9.9569 15.4449 10.001 15.8515 10.1694C16.258 10.3378 16.6055 10.623 16.85 10.9889C17.0945 11.3548 17.225 11.7849 17.225 12.225C17.225 12.8151 16.9906 13.381 16.5733 13.7983C16.156 14.2156 15.5901 14.45 15 14.45ZM23.75 2.5H6.25C5.25544 2.5 4.30161 2.89509 3.59835 3.59835C2.89509 4.30161 2.5 5.25544 2.5 6.25V23.75C2.5 24.7446 2.89509 25.6984 3.59835 26.4017C4.30161 27.1049 5.25544 27.5 6.25 27.5H23.75C24.7446 27.5 25.6984 27.1049 26.4017 26.4017C27.1049 25.6984 27.5 24.7446 27.5 23.75V6.25C27.5 5.25544 27.1049 4.30161 26.4017 3.59835C25.6984 2.89509 24.7446 2.5 23.75 2.5ZM25 23.75C25 24.0815 24.8683 24.3995 24.6339 24.6339C24.3995 24.8683 24.0815 25 23.75 25H6.25C5.91848 25 5.60054 24.8683 5.36612 24.6339C5.1317 24.3995 5 24.0815 5 23.75V6.25C5 5.91848 5.1317 5.60054 5.36612 5.36612C5.60054 5.1317 5.91848 5 6.25 5H23.75C24.0815 5 24.3995 5.1317 24.6339 5.36612C24.8683 5.60054 25 5.91848 25 6.25V23.75Z" fill="white"/>
</svg>
